<svg width="100" height="85" viewBox="0 0 100 85" fill="none" xmlns="http://www.w3.org/2000/svg">
<path d="M40.9232 1.54547C36.6155 1.54547 33.077 5.10002 33.077 9.58183C33.077 10.0455 33.2309 10.3546 33.6924 10.5091C34.0001 10.6637 34.4617 10.6637 34.7693 10.5091C35.077 10.3546 35.3847 9.89093 35.3847 9.58183C35.3847 6.33638 37.8463 3.86365 41.077 3.86365H90.6155C93.6924 3.86365 96.3078 6.33638 96.3078 9.58183V43.7364C96.3078 46.9818 93.8463 49.4546 90.6155 49.4546H83.8463C83.2309 49.4546 82.7693 49.9182 82.7693 50.5364V65.6818L68.9232 49.7637C68.7693 49.4546 68.4617 49.3 68.154 49.3H67.077V23.1818C67.077 18.8546 63.5386 15.1455 59.2309 15.1455H9.38473C5.07704 15.1455 1.53857 18.7 1.53857 23.1818V57.3364C1.53857 61.6637 5.07704 65.3727 9.38473 65.3727H15.077V82.3727C14.6155 82.8364 14.7693 83.6091 15.2309 83.9182C15.6924 84.3818 16.4617 84.2273 16.7693 83.7636C16.9232 83.6091 17.077 83.3 17.077 82.9909L32.4617 65.2182H59.077C63.3847 65.2182 66.9232 61.6637 66.9232 57.1818V51.4636H67.5386L82.9232 69.2364C83.3847 69.7 84.0001 69.7 84.4617 69.3909C84.7693 69.2364 84.9232 68.9273 84.9232 68.4637V51.4636H90.6155C94.9232 51.4636 98.4617 47.9091 98.4617 43.4273V9.58183C98.4617 5.10002 94.9232 1.54547 90.6155 1.54547H40.9232ZM9.38473 17.4637H58.9232C62.0001 17.4637 64.6155 19.9364 64.6155 23.1818V57.3364C64.6155 60.5818 62.154 63.0546 58.9232 63.0546H32.0001C31.6924 63.0546 31.3847 63.2091 31.2309 63.5182L17.3847 79.4364V64.2909C17.3847 63.6727 16.9232 63.2091 16.3078 63.2091H9.38473C6.30781 63.2091 3.69242 60.7364 3.69242 57.4909V23.1818C3.84627 19.9364 6.30781 17.4637 9.38473 17.4637ZM20.7693 38.0182C19.5386 38.0182 18.4617 39.1 18.4617 40.3364C18.4617 41.5727 19.5386 42.6546 20.7693 42.6546C22.0001 42.6546 23.077 41.5727 23.077 40.3364C22.9232 38.9455 22.0001 38.0182 20.7693 38.0182ZM34.154 38.0182C32.9232 38.0182 31.8463 39.1 31.8463 40.3364C31.8463 41.5727 32.9232 42.6546 34.154 42.6546C35.3847 42.6546 36.4617 41.5727 36.4617 40.3364C36.4617 38.9455 35.5386 38.0182 34.154 38.0182ZM47.6924 38.0182C46.4617 38.0182 45.3847 39.1 45.3847 40.3364C45.3847 41.5727 46.4617 42.6546 47.6924 42.6546C48.9232 42.6546 50.0001 41.5727 50.0001 40.3364C50.0001 38.9455 48.9232 38.0182 47.6924 38.0182Z" fill="#0099FF" stroke="#0099FF" stroke-width="2"/>
</svg>
