<?xml version="1.0" encoding="utf-8"?>
<!-- Generator: Adobe Illustrator 25.2.1, SVG Export Plug-In . SVG Version: 6.00 Build 0)  -->
<svg version="1.1" id="Layer_1" xmlns="http://www.w3.org/2000/svg" xmlns:xlink="http://www.w3.org/1999/xlink" x="0px" y="0px"
	 viewBox="0 0 65 55" style="enable-background:new 0 0 65 55;" xml:space="preserve">
<style type="text/css">
	.st0{fill:#046598;stroke:#046598;stroke-width:2;}
</style>
<path class="st0" d="M26.6,1c-2.8,0-5.1,2.3-5.1,5.2c0,0.3,0.1,0.5,0.4,0.6c0.2,0.1,0.5,0.1,0.7,0C22.8,6.7,23,6.4,23,6.2
	c0-2.1,1.6-3.7,3.7-3.7h32.2c2,0,3.7,1.6,3.7,3.7v22.1c0,2.1-1.6,3.7-3.7,3.7h-4.4c-0.4,0-0.7,0.3-0.7,0.7c0,0,0,0,0,0v9.8l-9-10.3
	c-0.1-0.2-0.3-0.3-0.5-0.3h-0.7V15c0-2.8-2.3-5.2-5.1-5.2H6.1C3.3,9.8,1,12.1,1,15v22.1c0,2.8,2.3,5.2,5.1,5.2h3.7v11
	c-0.3,0.3-0.2,0.8,0.1,1c0.3,0.3,0.8,0.2,1-0.1c0.1-0.1,0.2-0.3,0.2-0.5l10-11.5h17.3c2.8,0,5.1-2.3,5.1-5.2v-3.7h0.4l10,11.5
	c0.3,0.3,0.7,0.3,1,0.1c0.2-0.1,0.3-0.3,0.3-0.6v-11h3.7c2.8,0,5.1-2.3,5.1-5.2V6.2C64,3.3,61.7,1,58.9,1H26.6z M6.1,11.3h32.2
	c2,0,3.7,1.6,3.7,3.7v22.1c0,2.1-1.6,3.7-3.7,3.7H20.8c-0.2,0-0.4,0.1-0.5,0.3l-9,10.3v-9.8c0-0.4-0.3-0.7-0.7-0.7c0,0,0,0,0,0H6.1
	c-2,0-3.7-1.6-3.7-3.7V15C2.5,12.9,4.1,11.3,6.1,11.3z M13.5,24.6c-0.8,0-1.5,0.7-1.5,1.5s0.7,1.5,1.5,1.5c0.8,0,1.5-0.7,1.5-1.5
	C14.9,25.2,14.3,24.6,13.5,24.6z M22.2,24.6c-0.8,0-1.5,0.7-1.5,1.5s0.7,1.5,1.5,1.5c0.8,0,1.5-0.7,1.5-1.5
	C23.7,25.2,23.1,24.6,22.2,24.6z M31,24.6c-0.8,0-1.5,0.7-1.5,1.5s0.7,1.5,1.5,1.5s1.5-0.7,1.5-1.5C32.5,25.2,31.8,24.6,31,24.6
	L31,24.6z"/>
</svg>
