<svg width="100" height="92" viewBox="0 0 100 92" fill="none" xmlns="http://www.w3.org/2000/svg">
<path d="M97.4604 1.58618C98.0953 1.7448 98.4128 2.22066 98.4128 2.69653V84.7034C98.4128 85.3379 97.9366 85.6552 97.4604 85.8138L50.1588 90.4138H50.0001L2.53978 85.8138C1.90486 85.8138 1.5874 85.3379 1.5874 84.7034V2.69653C1.5874 2.06204 2.22232 1.58618 2.85724 1.58618L50.0001 6.18618L97.143 1.58618C97.3017 1.58618 97.3017 1.58618 97.4604 1.58618ZM96.1906 3.96549L51.1112 8.24825V88.0345L96.1906 83.7517V3.96549ZM3.80962 3.96549V83.7517L48.889 88.0345V8.24825L3.80962 3.96549ZM84.762 16.3379C85.3969 16.3379 86.0318 16.8138 86.0318 17.4483V47.1103C86.0318 47.7448 85.5556 48.062 85.0795 48.2207L62.5398 50.4414C61.9049 50.4414 61.2699 49.9655 61.2699 49.331V19.8276C61.2699 19.1931 61.7461 18.7172 62.2223 18.7172L84.762 16.3379ZM83.8096 18.7172L63.4922 20.7793V48.062L83.8096 46V18.7172ZM15.0795 20.9379L37.7779 23.3172C38.4128 23.3172 39.0477 23.9517 38.889 24.5862C38.889 25.2207 38.0953 25.6965 37.4604 25.5379L14.9207 23.1586C14.2858 23.1586 13.8096 22.5241 13.8096 22.0483C13.9684 21.4138 14.4445 20.9379 15.0795 20.9379ZM15.0795 36.8C15.0795 36.9586 15.0795 36.9586 15.0795 36.8L37.7779 39.1793C38.4128 39.1793 39.0477 39.8138 38.889 40.4483C38.889 41.0827 38.0953 41.5586 37.4604 41.4L14.9207 39.1793C14.2858 39.1793 13.8096 38.5448 13.8096 38.0689C13.9684 37.4345 14.4445 36.8 15.0795 36.8ZM15.0795 52.8207L37.7779 55.2C38.4128 55.2 39.0477 55.8345 38.889 56.4689C38.889 57.1034 38.0953 57.5793 37.4604 57.4207L14.9207 55.0414C14.2858 55.0414 13.8096 54.4069 13.8096 53.931C13.9684 53.2965 14.4445 52.8207 15.0795 52.8207ZM86.0318 58.531C86.0318 59.0069 85.5556 59.4827 85.0795 59.6414L62.5398 61.862C61.9049 62.0207 61.2699 61.5448 61.1112 60.9103C61.1112 60.2758 61.5874 59.6414 62.2223 59.6414L84.762 57.4207C85.5557 57.4207 86.0318 58.0552 86.0318 58.531ZM15.0795 68.8414C15.0795 68.8414 15.2382 68.8414 15.0795 68.8414L37.7779 71.2207C38.4128 71.2207 39.0477 71.8552 38.889 72.4896C38.889 73.1241 38.0953 73.6 37.4604 73.4414L14.9207 71.062C14.2858 71.062 13.8096 70.4276 13.8096 69.9517C13.9684 69.3172 14.4445 68.6827 15.0795 68.8414ZM86.0318 69.9517C86.0318 70.4276 85.5556 70.9034 85.0795 71.062L62.5398 73.2827C61.9049 73.4414 61.2699 72.9655 61.1112 72.331C61.1112 71.6965 61.5874 71.062 62.2223 71.062L84.762 68.8414C85.5557 68.8414 85.8731 69.4758 86.0318 69.9517Z" fill="#0099FF" stroke="#0099FF" stroke-width="2"/>
</svg>
