<svg width="98" height="98" viewBox="0 0 98 98" fill="none" xmlns="http://www.w3.org/2000/svg">
<path d="M29.6451 34.4839V40.9355C29.6451 41.9032 30.2902 42.5484 31.258 42.5484H66.7418C67.7096 42.5484 68.3547 41.9032 68.3547 40.9355V34.4839C68.3547 27.3871 63.3547 21.5807 56.5805 20.2903C58.9999 18.0323 60.2902 15.129 60.2902 11.9032C60.2902 5.61292 55.2902 0.612915 48.9999 0.612915C42.7096 0.612915 37.7096 5.61292 37.7096 11.9032C37.7096 15.129 39.1612 18.1936 41.4192 20.2903C34.6451 21.5807 29.6451 27.3871 29.6451 34.4839ZM40.9354 11.9032C40.9354 7.38711 44.4838 3.83872 48.9999 3.83872C53.516 3.83872 57.0644 7.38711 57.0644 11.9032C57.0644 16.4194 53.516 19.9678 48.9999 19.9678C44.4838 19.9678 40.9354 16.4194 40.9354 11.9032ZM44.1612 23.1936H53.8386C60.1289 23.1936 65.1289 28.1936 65.1289 34.4839V39.3226H32.8709V34.4839C32.8709 28.1936 37.8709 23.1936 44.1612 23.1936ZM2.2257 97.3871H37.7096C38.6773 97.3871 39.3225 96.742 39.3225 95.7742V89.3226C39.3225 82.2258 34.3225 76.4194 27.5483 75.1291C29.9676 72.871 31.258 69.9678 31.258 66.742C31.258 60.4516 26.258 55.4516 19.9676 55.4516C13.6773 55.4516 8.67731 60.4516 8.67731 66.742C8.67731 69.9678 10.1289 73.0323 12.387 75.1291C5.61279 76.4194 0.612793 82.2258 0.612793 89.3226V95.7742C0.612793 96.742 1.25795 97.3871 2.2257 97.3871ZM11.9031 66.742C11.9031 62.2258 15.4515 58.6774 19.9676 58.6774C24.4838 58.6774 28.0322 62.2258 28.0322 66.742C28.0322 71.2581 24.4838 74.8065 19.9676 74.8065C15.4515 74.8065 11.9031 71.2581 11.9031 66.742ZM3.8386 89.3226C3.8386 83.0323 8.8386 78.0323 15.1289 78.0323H24.8063C31.0967 78.0323 36.0967 83.0323 36.0967 89.3226V94.1613H3.8386V89.3226ZM85.6128 75.1291C88.0322 72.871 89.3225 69.9678 89.3225 66.742C89.3225 60.4516 84.3225 55.4516 78.0322 55.4516C71.7418 55.4516 66.7418 60.4516 66.7418 66.742C66.7418 69.9678 68.1934 73.0323 70.4515 75.1291C63.6773 76.4194 58.6773 82.2258 58.6773 89.3226V95.7742C58.6773 96.742 59.3225 97.3871 60.2902 97.3871H95.7741C96.7418 97.3871 97.387 96.742 97.387 95.7742V89.3226C97.387 82.2258 92.387 76.4194 85.6128 75.1291ZM69.9676 66.742C69.9676 62.2258 73.516 58.6774 78.0322 58.6774C82.5483 58.6774 86.0967 62.2258 86.0967 66.742C86.0967 71.2581 82.5483 74.8065 78.0322 74.8065C73.516 74.8065 69.9676 71.2581 69.9676 66.742ZM94.1612 94.1613H61.9031V89.3226C61.9031 83.0323 66.9031 78.0323 73.1934 78.0323H82.8709C89.1612 78.0323 94.1612 83.0323 94.1612 89.3226V94.1613Z" fill="#0099FF"/>
</svg>
