<?xml version="1.0" encoding="utf-8"?>
<!-- Generator: Adobe Illustrator 25.2.1, SVG Export Plug-In . SVG Version: 6.00 Build 0)  -->
<svg version="1.1" id="Layer_1" xmlns="http://www.w3.org/2000/svg" xmlns:xlink="http://www.w3.org/1999/xlink" x="0px" y="0px"
	 viewBox="0 0 62 62" style="enable-background:new 0 0 62 62;" xml:space="preserve">
<style type="text/css">
	.st0{fill:#036597;}
</style>
<g>
	<path class="st0" d="M19,22v4c0,0.6,0.4,1,1,1h22c0.6,0,1-0.4,1-1v-4c0-4.4-3.1-8-7.3-8.8C37.2,11.8,38,10,38,8c0-3.9-3.1-7-7-7
		s-7,3.1-7,7c0,2,0.9,3.9,2.3,5.2C22.1,14,19,17.6,19,22z M26,8c0-2.8,2.2-5,5-5s5,2.2,5,5s-2.2,5-5,5S26,10.8,26,8z M28,15h6
		c3.9,0,7,3.1,7,7v3H21v-3C21,18.1,24.1,15,28,15z M2,61h22c0.6,0,1-0.4,1-1v-4c0-4.4-3.1-8-7.3-8.8C19.2,45.8,20,44,20,42
		c0-3.9-3.1-7-7-7s-7,3.1-7,7c0,2,0.9,3.9,2.3,5.2C4.1,48,1,51.6,1,56v4C1,60.6,1.4,61,2,61z M8,42c0-2.8,2.2-5,5-5s5,2.2,5,5
		s-2.2,5-5,5S8,44.8,8,42z M3,56c0-3.9,3.1-7,7-7h6c3.9,0,7,3.1,7,7v3H3V56z M53.7,47.2C55.2,45.8,56,44,56,42c0-3.9-3.1-7-7-7
		s-7,3.1-7,7c0,2,0.9,3.9,2.3,5.2C40.1,48,37,51.6,37,56v4c0,0.6,0.4,1,1,1h22c0.6,0,1-0.4,1-1v-4C61,51.6,57.9,48,53.7,47.2z
		 M44,42c0-2.8,2.2-5,5-5s5,2.2,5,5s-2.2,5-5,5S44,44.8,44,42z M59,59H39v-3c0-3.9,3.1-7,7-7h6c3.9,0,7,3.1,7,7V59z"/>
	<path class="st0" d="M5,33c0,0.7,0.1,1.4,0.2,2.1l2-0.2C7.1,34.2,7,33.6,7,33C7,33,5,33,5,33z M5,31L7,31c0-0.6,0.1-1.3,0.2-1.9
		l-2-0.2C5.1,29.6,5,30.3,5,31z M15.2,11.3c-0.5,0.4-1.1,0.9-1.6,1.3l1.3,1.5c0.5-0.4,1-0.8,1.5-1.2L15.2,11.3z M6.7,22.8l1.9,0.7
		C8.8,23,9,22.4,9.3,21.8l-1.8-0.9C7.2,21.6,6.9,22.2,6.7,22.8z M5.5,26.8l2,0.4c0.1-0.6,0.3-1.3,0.5-1.9L6,24.8
		C5.8,25.5,5.6,26.2,5.5,26.8z M13.6,15.5l-1.4-1.4c-0.5,0.5-0.9,1-1.4,1.6l1.6,1.3C12.7,16.4,13.2,15.9,13.6,15.5z M16.9,10.1
		l1.1,1.7c0.5-0.3,1.1-0.7,1.7-1l-0.9-1.8C18.1,9.4,17.5,9.8,16.9,10.1z M8.4,19.1l1.7,1c0.3-0.6,0.7-1.1,1-1.6l-1.6-1.1
		C9.1,17.9,8.8,18.5,8.4,19.1z M26.3,55.5l-0.4,2c0.7,0.1,1.4,0.2,2.1,0.3l0.2-2C27.5,55.8,26.9,55.7,26.3,55.5z M35.8,55.5
		c-0.6,0.1-1.3,0.2-1.9,0.3l0.2,2c0.7-0.1,1.4-0.2,2.1-0.3L35.8,55.5z M32.1,58L32,56c-0.6,0-1.3,0-1.9,0L30,58
		C30.7,58,31.4,58,32.1,58z M47,14.1c0.5,0.4,0.9,0.9,1.4,1.3l1.5-1.4c-0.5-0.5-1-1-1.5-1.5L47,14.1z M49.7,16.9
		c0.4,0.5,0.8,1,1.1,1.5l1.6-1.1c-0.4-0.6-0.8-1.1-1.2-1.7C51.2,15.7,49.7,16.9,49.7,16.9z M57,33c0-0.7,0-1.4,0-2.1L55,31
		c0,0.6,0,1.3,0,1.9L57,33z M51.8,20.1c0.3,0.6,0.6,1.1,0.9,1.7l1.8-0.9c-0.3-0.6-0.6-1.2-1-1.8C53.6,19.1,51.8,20.1,51.8,20.1z
		 M53.5,23.6c0.2,0.6,0.4,1.2,0.6,1.8l1.9-0.6c-0.2-0.7-0.4-1.3-0.7-2C55.3,22.9,53.5,23.6,53.5,23.6z M54.5,27.2
		c0.1,0.6,0.2,1.3,0.3,1.9l2-0.2c-0.1-0.7-0.2-1.4-0.3-2.1L54.5,27.2z M46.8,11.3c-0.6-0.4-1.1-0.8-1.7-1.2L44,11.8
		c0.5,0.3,1.1,0.7,1.6,1.1C45.6,12.9,46.8,11.3,46.8,11.3z M41.4,8.2L40.6,10c0.6,0.3,1.2,0.5,1.7,0.8l0.9-1.8
		C42.7,8.7,42,8.4,41.4,8.2z"/>
</g>
</svg>
