<?xml version="1.0" encoding="utf-8"?>
<!-- Generator: Adobe Illustrator 25.2.1, SVG Export Plug-In . SVG Version: 6.00 Build 0)  -->
<svg version="1.1" id="Layer_1" xmlns="http://www.w3.org/2000/svg" xmlns:xlink="http://www.w3.org/1999/xlink" x="0px" y="0px"
	 viewBox="0 0 63 58" style="enable-background:new 0 0 63 58;" xml:space="preserve">
<style type="text/css">
	.st0{fill:#046598;stroke:#046598;stroke-width:2;}
</style>
<path class="st0" d="M61.4,1C61.8,1.1,62,1.4,62,1.7v51.7c0,0.4-0.3,0.6-0.6,0.7L31.6,57c0,0-0.1,0-0.1,0L1.6,54.1
	c-0.4,0-0.6-0.3-0.6-0.7V1.7C1,1.3,1.4,1,1.8,1l29.7,2.9L61.2,1C61.3,1,61.3,1,61.4,1z M60.6,2.5L32.2,5.2v50.3l28.4-2.7L60.6,2.5
	L60.6,2.5z M2.4,2.5v50.3l28.4,2.7V5.2C30.8,5.2,2.4,2.5,2.4,2.5z M53.4,10.3c0.4,0,0.8,0.3,0.8,0.7c0,0,0,0,0,0v18.7
	c0,0.4-0.3,0.6-0.6,0.7l-14.2,1.4c-0.4,0-0.8-0.3-0.8-0.7V12.5c0-0.4,0.3-0.7,0.6-0.7L53.4,10.3z M52.8,11.8L40,13.1v17.2l12.8-1.3
	V11.8L52.8,11.8z M9.5,13.2C9.5,13.2,9.5,13.2,9.5,13.2l14.3,1.5c0.4,0,0.8,0.4,0.7,0.8c0,0.4-0.5,0.7-0.9,0.6L9.4,14.6
	c-0.4,0-0.7-0.4-0.7-0.7C8.8,13.5,9.1,13.2,9.5,13.2L9.5,13.2z M9.5,23.2C9.5,23.3,9.5,23.3,9.5,23.2l14.3,1.5
	c0.4,0,0.8,0.4,0.7,0.8c0,0.4-0.5,0.7-0.9,0.6L9.4,24.7c-0.4,0-0.7-0.4-0.7-0.7C8.8,23.6,9.1,23.2,9.5,23.2z M9.5,33.3
	C9.5,33.3,9.5,33.3,9.5,33.3l14.3,1.5c0.4,0,0.8,0.4,0.7,0.8c0,0.4-0.5,0.7-0.9,0.6L9.4,34.7c-0.4,0-0.7-0.4-0.7-0.7
	C8.8,33.6,9.1,33.3,9.5,33.3z M54.2,36.9c0,0.3-0.3,0.6-0.6,0.7L39.4,39c-0.4,0.1-0.8-0.2-0.9-0.6c0-0.4,0.3-0.8,0.7-0.8l14.2-1.4
	C53.9,36.2,54.2,36.6,54.2,36.9z M9.5,43.4C9.5,43.4,9.6,43.4,9.5,43.4l14.3,1.5c0.4,0,0.8,0.4,0.7,0.8c0,0.4-0.5,0.7-0.9,0.6
	L9.4,44.8c-0.4,0-0.7-0.4-0.7-0.7C8.8,43.7,9.1,43.3,9.5,43.4L9.5,43.4z M54.2,44.1c0,0.3-0.3,0.6-0.6,0.7l-14.2,1.4
	c-0.4,0.1-0.8-0.2-0.9-0.6c0-0.4,0.3-0.8,0.7-0.8l14.2-1.4C53.9,43.4,54.1,43.8,54.2,44.1z"/>
</svg>
