<?xml version="1.0" encoding="utf-8"?>
<!-- Generator: Adobe Illustrator 21.1.0, SVG Export Plug-In . SVG Version: 6.00 Build 0)  -->
<svg version="1.1" id="Layer_1" xmlns="http://www.w3.org/2000/svg" xmlns:xlink="http://www.w3.org/1999/xlink" x="0px" y="0px"
	 viewBox="0 0 800 800" style="enable-background:new 0 0 800 800;" xml:space="preserve">
<style type="text/css">
	.st0{fill:#EE3D24;}
	.st1{fill:#FFFFFF;}
	.st2{fill:#4068B1;}
	.st3{fill:#009749;}
	.st4{fill:#F5ED6E;}
	.st5{fill:#F06836;}
	.st6{fill:#211E1F;}
	.st7{fill:#036597;}
	.st8{fill:#F79720;}
	.st9{fill:#C93827;}
	.st10{fill:#1A3763;}
	.st11{fill:#478ECC;}
	.st12{fill:#006666;}
</style>
<g>
	<rect x="98.3" y="97.7" width="604.6" height="507.8"/>
	<rect x="98.3" y="604.3" class="st0" width="24.2" height="97.5"/>
	<rect x="122.5" y="604.3" class="st1" width="24.2" height="97.5"/>
	<rect x="146.7" y="604.3" class="st2" width="24.2" height="97.5"/>
	<rect x="170.8" y="604.3" class="st3" width="24.2" height="97.5"/>
	<rect x="195" y="604.3" class="st4" width="24.2" height="97.5"/>
	<rect x="219.2" y="604.3" class="st5" width="24.2" height="97.5"/>
	<rect x="243.4" y="604.3" class="st6" width="24.2" height="97.5"/>
	<rect x="267.6" y="604.3" class="st3" width="24.2" height="97.5"/>
	<rect x="291.8" y="604.3" class="st0" width="24.2" height="97.5"/>
	<rect x="315.9" y="604.3" class="st1" width="24.2" height="97.5"/>
	<rect x="340.1" y="604.3" class="st7" width="24.2" height="97.5"/>
	<rect x="364.3" y="604.3" class="st4" width="24.2" height="97.5"/>
	<rect x="388.5" y="604.3" class="st6" width="24.2" height="97.5"/>
	<rect x="412.7" y="604.3" class="st8" width="24.2" height="97.5"/>
	<rect x="436.9" y="604.3" class="st1" width="24.2" height="97.5"/>
	<rect x="461" y="604.3" class="st9" width="24.2" height="97.5"/>
	<rect x="485.2" y="604.3" class="st10" width="24.2" height="97.5"/>
	<rect x="509.4" y="604.3" class="st3" width="24.2" height="97.5"/>
	<rect x="533.6" y="604.3" class="st4" width="24.2" height="97.5"/>
	<rect x="557.8" y="604.3" class="st7" width="24.2" height="97.5"/>
	<rect x="582" y="604.3" class="st0" width="24.2" height="97.5"/>
	<rect x="606.1" y="604.3" class="st11" width="24.2" height="97.5"/>
	<rect x="630.3" y="604.3" class="st8" width="24.2" height="97.5"/>
	<rect x="654.5" y="604.3" class="st1" width="24.2" height="97.5"/>
	<rect x="678.7" y="604.3" class="st12" width="24.2" height="97.5"/>
	<g>
		<path class="st1" d="M183.2,244c10.9,0,20,3.5,27.3,10.4c7.3,6.9,10.9,15.6,10.9,26s-3.7,19.1-11,25.9
			c-7.3,6.8-16.6,10.2-27.7,10.2c-10.7,0-19.5-3.4-26.6-10.2c-7.1-6.8-10.6-15.4-10.6-25.7c0-10.6,3.6-19.3,10.7-26.2
			C163.3,247.5,172.3,244,183.2,244z M183.6,253.6c-8.1,0-14.7,2.5-19.9,7.6c-5.2,5.1-7.8,11.5-7.8,19.4c0,7.6,2.6,14,7.8,19
			c5.2,5.1,11.8,7.6,19.6,7.6c7.9,0,14.5-2.6,19.7-7.7c5.3-5.2,7.9-11.6,7.9-19.3c0-7.5-2.6-13.8-7.9-18.9
			C197.8,256.2,191.3,253.6,183.6,253.6z"/>
		<path class="st1" d="M229.9,339.4v-70.3h16.1c8.3,0,14.7,2.1,19.3,6.2c4.6,4.1,6.9,9.9,6.9,17.3c0,7-2.2,12.7-6.5,17.2
			s-9.8,6.7-16.5,6.7c-3,0-6.2-0.7-9.9-2v24.9H229.9z M245.9,277.8h-6.5v28.6c2.8,1.5,5.8,2.2,8.9,2.2c4.3,0,7.8-1.5,10.6-4.5
			c2.7-3,4.1-6.9,4.1-11.6c0-3-0.6-5.7-1.9-8c-1.3-2.3-3.1-4-5.3-5.1C253.4,278.3,250.2,277.8,245.9,277.8z"/>
		<path class="st1" d="M320,293.2h-32.7c0.2,4.5,1.7,8,4.5,10.6c2.7,2.6,6.3,3.9,10.7,3.9c6.1,0,11.7-1.9,16.8-5.7v9
			c-2.8,1.9-5.6,3.2-8.4,4c-2.8,0.8-6,1.2-9.8,1.2c-5.1,0-9.3-1.1-12.4-3.2c-3.2-2.1-5.7-5-7.6-8.6c-1.9-3.6-2.9-7.8-2.9-12.5
			c0-7.1,2-12.8,6-17.3c4-4.4,9.2-6.7,15.6-6.7c6.2,0,11.1,2.2,14.8,6.5c3.7,4.3,5.5,10.1,5.5,17.4V293.2z M287.4,287.7h23.4
			c-0.2-3.7-1.3-6.5-3.3-8.5c-2-2-4.6-3-7.9-3c-3.3,0-6,1-8.1,3C289.4,281.2,288.1,284.1,287.4,287.7z"/>
		<path class="st1" d="M337.1,269.2v5.9c4.1-4.6,8.8-6.8,14-6.8c2.9,0,5.6,0.8,8.1,2.3c2.5,1.5,4.4,3.6,5.7,6.2
			c1.3,2.6,1.9,6.8,1.9,12.4v26.6h-9.2v-26.5c0-4.8-0.7-8.2-2.2-10.2c-1.5-2-3.9-3.1-7.3-3.1c-4.4,0-8,2.2-11.1,6.5v33.2h-9.4v-46.6
			H337.1z"/>
		<path class="st1" d="M186.8,377.7h23.7v30c-8.7,3.8-17.3,5.7-25.9,5.7c-11.7,0-21.1-3.4-28.1-10.2c-7-6.8-10.5-15.3-10.5-25.3
			c0-10.6,3.6-19.3,10.9-26.4c7.3-7,16.3-10.5,27.3-10.5c4,0,7.8,0.4,11.3,1.3c3.6,0.9,8.1,2.4,13.6,4.7v10.3
			c-8.4-4.9-16.8-7.3-25.1-7.3c-7.7,0-14.2,2.6-19.5,7.9c-5.3,5.3-7.9,11.7-7.9,19.4c0,8,2.6,14.6,7.9,19.7
			c5.3,5.1,12.1,7.6,20.4,7.6c4,0,8.9-0.9,14.5-2.8l1-0.3v-14.7h-13.6V377.7z"/>
		<path class="st1" d="M244.2,365.9c7.1,0,13,2.3,17.7,6.9c4.7,4.6,7,10.3,7,17.2c0,6.7-2.4,12.3-7.1,16.7c-4.8,4.4-10.7,6.7-18,6.7
			c-7,0-12.8-2.3-17.5-6.8c-4.7-4.5-7-10.1-7-16.9c0-6.8,2.4-12.5,7.1-17C231.1,368.1,237,365.9,244.2,365.9z M243.7,374.2
			c-4.4,0-8,1.5-10.9,4.4c-2.8,2.9-4.3,6.6-4.3,11.1c0,4.5,1.5,8.1,4.4,10.9c2.9,2.8,6.6,4.2,11.2,4.2c4.5,0,8.2-1.4,11.1-4.3
			c2.9-2.9,4.3-6.5,4.3-11c0-4.4-1.5-8.1-4.5-11C252,375.6,248.2,374.2,243.7,374.2z"/>
		<path class="st1" d="M304.5,366h10L294,413.3h-3.1L269.8,366h10.1l12.6,28.6L304.5,366z"/>
		<path class="st1" d="M359,390h-32.7c0.2,4.5,1.7,8,4.5,10.6c2.7,2.6,6.3,3.9,10.7,3.9c6.1,0,11.7-1.9,16.8-5.7v9
			c-2.8,1.9-5.6,3.2-8.4,4c-2.8,0.8-6,1.2-9.8,1.2c-5.1,0-9.3-1.1-12.4-3.2c-3.2-2.1-5.7-5-7.6-8.6c-1.9-3.6-2.9-7.8-2.9-12.5
			c0-7.1,2-12.8,6-17.3c4-4.4,9.2-6.7,15.6-6.7c6.2,0,11.1,2.2,14.8,6.5c3.7,4.3,5.5,10.1,5.5,17.4V390z M326.5,384.5h23.4
			c-0.2-3.7-1.3-6.5-3.3-8.5c-2-2-4.6-3-7.9-3c-3.3,0-6,1-8.1,3C328.5,378,327.1,380.9,326.5,384.5z"/>
		<path class="st1" d="M376.8,366v10.7l0.5-0.8c4.5-7.2,8.9-10.8,13.4-10.8c3.5,0,7.1,1.8,10.9,5.3l-4.9,8.1c-3.2-3-6.2-4.6-8.9-4.6
			c-3,0-5.5,1.4-7.7,4.3c-2.2,2.8-3.3,6.2-3.3,10.1v24.3h-9.3V366H376.8z"/>
		<path class="st1" d="M415.1,366v5.9c4.1-4.6,8.8-6.8,14-6.8c2.9,0,5.6,0.8,8.1,2.3c2.5,1.5,4.4,3.6,5.7,6.2
			c1.3,2.6,1.9,6.8,1.9,12.4v26.6h-9.2V386c0-4.8-0.7-8.2-2.2-10.2c-1.4-2-3.9-3.1-7.3-3.1c-4.4,0-8,2.2-11.1,6.5v33.2h-9.4V366
			H415.1z"/>
		<path class="st1" d="M491.7,378.7v33.8h-9.3v-25.9c0-5.2-0.7-8.8-2.1-10.8c-1.4-2-3.8-3.1-7.2-3.1c-1.9,0-3.7,0.4-5.3,1.3
			c-1.6,0.9-3.4,2.4-5.5,4.7v33.8h-9.2V366h9.2v6.1c4.7-4.7,9.3-7,13.8-7c5.9,0,10.5,2.8,13.7,8.4c4.9-5.7,10.1-8.5,15.4-8.5
			c4.5,0,8.2,1.7,11.2,5c2.9,3.3,4.4,8.4,4.4,15.1v27.5h-9.2v-27.6c0-3.9-0.8-6.8-2.4-8.9c-1.6-2.1-3.9-3.1-6.8-3.1
			C498.6,372.9,495,374.9,491.7,378.7z"/>
		<path class="st1" d="M569,390h-32.7c0.2,4.5,1.7,8,4.5,10.6c2.7,2.6,6.3,3.9,10.7,3.9c6.1,0,11.7-1.9,16.8-5.7v9
			c-2.8,1.9-5.6,3.2-8.4,4c-2.8,0.8-6,1.2-9.8,1.2c-5.1,0-9.3-1.1-12.4-3.2c-3.2-2.1-5.7-5-7.6-8.6c-1.9-3.6-2.9-7.8-2.9-12.5
			c0-7.1,2-12.8,6-17.3c4-4.4,9.2-6.7,15.6-6.7c6.2,0,11.1,2.2,14.8,6.5c3.7,4.3,5.5,10.1,5.5,17.4V390z M536.4,384.5h23.4
			c-0.2-3.7-1.3-6.5-3.3-8.5c-2-2-4.6-3-7.9-3c-3.3,0-6,1-8.1,3C538.5,378,537.1,380.9,536.4,384.5z"/>
		<path class="st1" d="M586.1,366v5.9c4.1-4.6,8.8-6.8,14-6.8c2.9,0,5.6,0.8,8.1,2.3c2.5,1.5,4.4,3.6,5.7,6.2
			c1.3,2.6,1.9,6.8,1.9,12.4v26.6h-9.2V386c0-4.8-0.7-8.2-2.2-10.2c-1.5-2-3.9-3.1-7.3-3.1c-4.4,0-8,2.2-11.1,6.5v33.2h-9.4V366
			H586.1z"/>
		<path class="st1" d="M620.1,373.3l17.3-17v9.6h14.7v8.3h-14.7V397c0,5.3,2.2,8,6.6,8c3.3,0,6.8-1.1,10.5-3.3v8.6
			c-3.5,2-7.4,3-11.6,3c-4.2,0-7.7-1.2-10.5-3.7c-0.9-0.7-1.6-1.6-2.2-2.5c-0.6-0.9-1.1-2.1-1.4-3.6c-0.4-1.5-0.6-4.4-0.6-8.6v-20.6
			h-8.1V373.3z"/>
		<path class="st1" d="M148,509.3v-70.8h22.4c6.7,0,12.1,1.8,16.1,5.5c4,3.6,6,8.5,6,14.7c0,4.1-1,7.8-3.1,10.9
			c-2.1,3.2-4.9,5.5-8.5,6.9c-3.6,1.4-8.7,2.2-15.4,2.2h-7.5v30.7H148z M168.6,447.5h-10.5v22.1h11.1c4.1,0,7.3-1,9.5-2.9
			c2.2-1.9,3.3-4.7,3.3-8.3C182.1,451.2,177.6,447.5,168.6,447.5z"/>
		<path class="st1" d="M229.4,481.3v19.8c0,1.6,0.5,2.4,1.6,2.4c1.1,0,2.9-0.8,5.2-2.5v5.6c-2.1,1.3-3.8,2.3-5,2.8
			c-1.3,0.5-2.6,0.7-4,0.7c-3.9,0-6.3-1.6-7-4.7c-3.9,3-8.1,4.6-12.5,4.6c-3.2,0-5.9-1.1-8.1-3.2c-2.2-2.1-3.2-4.8-3.2-8.1
			c0-2.9,1.1-5.6,3.2-7.9c2.1-2.3,5.1-4.1,9-5.5l11.8-4v-2.5c0-5.6-2.8-8.4-8.4-8.4c-5,0-9.9,2.6-14.7,7.8v-10.1
			c3.6-4.2,8.7-6.3,15.4-6.3c5,0,9.1,1.3,12.1,3.9c1,0.8,1.9,2,2.7,3.4s1.3,2.8,1.5,4.2C229.3,474.8,229.4,477.4,229.4,481.3z
			 M220.3,500.1v-13.8l-6.2,2.4c-3.1,1.2-5.4,2.5-6.7,3.8c-1.3,1.3-1.9,2.8-1.9,4.7c0,1.9,0.6,3.5,1.8,4.7c1.2,1.2,2.8,1.8,4.8,1.8
			C215.1,503.7,217.8,502.5,220.3,500.1z"/>
		<path class="st1" d="M252.1,462.8v10.7l0.5-0.8c4.5-7.2,8.9-10.8,13.4-10.8c3.5,0,7.1,1.8,10.9,5.3l-4.9,8.1
			c-3.2-3-6.2-4.6-8.9-4.6c-3,0-5.5,1.4-7.7,4.3c-2.2,2.8-3.3,6.2-3.3,10.1v24.3h-9.3v-46.6H252.1z"/>
		<path class="st1" d="M278.9,470.1l17.3-17v9.6h14.7v8.3h-14.7v22.8c0,5.3,2.2,8,6.6,8c3.3,0,6.8-1.1,10.5-3.3v8.6
			c-3.5,2-7.4,3-11.6,3c-4.2,0-7.7-1.2-10.5-3.7c-0.9-0.7-1.6-1.6-2.2-2.5c-0.6-0.9-1.1-2.1-1.4-3.6c-0.4-1.5-0.6-4.4-0.6-8.6v-20.6
			h-8.1V470.1z"/>
		<path class="st1" d="M329.1,462.8v5.9c4.1-4.6,8.8-6.8,14-6.8c2.9,0,5.6,0.8,8.1,2.3c2.5,1.5,4.4,3.6,5.7,6.2
			c1.3,2.6,1.9,6.8,1.9,12.4v26.6h-9.2v-26.5c0-4.8-0.7-8.2-2.2-10.2c-1.5-2-3.9-3.1-7.3-3.1c-4.4,0-8,2.2-11.1,6.5v33.2h-9.4v-46.6
			H329.1z"/>
		<path class="st1" d="M407.3,486.8h-32.7c0.2,4.5,1.7,8,4.5,10.6c2.7,2.6,6.3,3.9,10.7,3.9c6.1,0,11.7-1.9,16.8-5.7v9
			c-2.8,1.9-5.6,3.2-8.4,4c-2.8,0.8-6,1.2-9.8,1.2c-5.1,0-9.3-1.1-12.4-3.2c-3.2-2.1-5.7-5-7.6-8.6c-1.9-3.6-2.9-7.8-2.9-12.5
			c0-7.1,2-12.8,6-17.3c4-4.4,9.2-6.7,15.6-6.7c6.2,0,11.1,2.2,14.8,6.5c3.7,4.3,5.5,10.1,5.5,17.4V486.8z M374.7,481.3h23.4
			c-0.2-3.7-1.3-6.5-3.3-8.5c-2-2-4.6-3-7.9-3c-3.3,0-6,1-8.1,3C376.7,474.8,375.4,477.7,374.7,481.3z"/>
		<path class="st1" d="M425,462.8v10.7l0.5-0.8c4.5-7.2,8.9-10.8,13.4-10.8c3.5,0,7.1,1.8,10.9,5.3l-4.9,8.1c-3.2-3-6.2-4.6-8.9-4.6
			c-3,0-5.5,1.4-7.7,4.3c-2.2,2.8-3.3,6.2-3.3,10.1v24.3h-9.3v-46.6H425z"/>
		<path class="st1" d="M453.9,506v-9.9c2.6,1.8,5.3,3.3,8,4.4c2.7,1.1,5,1.7,6.9,1.7c1.9,0,3.6-0.5,5-1.4c1.4-0.9,2.1-2.1,2.1-3.4
			c0-1.3-0.4-2.5-1.3-3.4c-0.9-0.9-2.8-2.2-5.8-3.9c-5.9-3.3-9.8-6.1-11.7-8.5s-2.8-4.9-2.8-7.7c0-3.6,1.4-6.5,4.2-8.8
			c2.8-2.3,6.4-3.4,10.8-3.4c4.6,0,9.2,1.3,14,3.8v9.1c-5.5-3.3-9.9-5-13.4-5c-1.8,0-3.2,0.4-4.3,1.1c-1.1,0.8-1.6,1.8-1.6,3
			c0,1.1,0.5,2.1,1.5,3.1c1,1,2.7,2.2,5.2,3.5l3.3,1.9c7.8,4.4,11.6,9.2,11.6,14.6c0,3.8-1.5,6.9-4.5,9.4c-3,2.4-6.8,3.7-11.5,3.7
			c-2.8,0-5.2-0.3-7.4-0.9C459.9,508.6,457.2,507.6,453.9,506z"/>
		<path class="st1" d="M493.8,438.6h9.2v30.3c3.8-4.7,8.6-7,14.3-7c3.1,0,5.9,0.8,8.4,2.3c2.5,1.6,4.3,3.7,5.5,6.4
			c1.2,2.7,1.8,6.8,1.8,12.2v26.5h-9.2v-28.8c0-3.4-0.8-6.1-2.5-8.2c-1.7-2.1-3.9-3.1-6.6-3.1c-2,0-3.9,0.5-5.7,1.6
			c-1.8,1-3.8,2.8-5.9,5.2v33.3h-9.2V438.6z"/>
		<path class="st1" d="M548.5,443.2c1.5,0,2.8,0.5,3.9,1.6c1.1,1,1.6,2.3,1.6,3.8c0,1.5-0.5,2.8-1.6,3.8c-1.1,1.1-2.4,1.6-3.9,1.6
			c-1.4,0-2.7-0.5-3.7-1.6c-1.1-1.1-1.6-2.4-1.6-3.8c0-1.4,0.5-2.7,1.6-3.8C545.8,443.7,547.1,443.2,548.5,443.2z M543.9,462.8h9.2
			v46.6h-9.2V462.8z"/>
		<path class="st1" d="M563.8,533v-70.3h16.1c8.3,0,14.7,2.1,19.3,6.2c4.6,4.1,6.9,9.9,6.9,17.3c0,7-2.2,12.7-6.5,17.2
			s-9.8,6.7-16.5,6.7c-3,0-6.2-0.7-9.9-2V533H563.8z M579.7,471.4h-6.5V500c2.8,1.5,5.8,2.2,8.9,2.2c4.3,0,7.8-1.5,10.6-4.5
			c2.7-3,4.1-6.9,4.1-11.6c0-3-0.6-5.7-1.9-8c-1.3-2.3-3.1-4-5.3-5.1C587.3,471.9,584,471.4,579.7,471.4z"/>
	</g>
</g>
</svg>
